<svg width="11" height="6" viewBox="0 0 11 6" fill="none" xmlns="http://www.w3.org/2000/svg">
<path d="M10.5148 0.949149C10.5148 0.868792 10.4746 0.778389 10.4143 0.718122L9.91211 0.215889C9.85184 0.155622 9.76144 0.115443 9.68108 0.115443C9.60073 0.115443 9.51032 0.155622 9.45006 0.215889L5.50251 4.16343L1.55497 0.215889C1.4947 0.155622 1.4043 0.115443 1.32394 0.115443C1.23354 0.115443 1.15318 0.155622 1.09291 0.215889L0.590681 0.718122C0.530413 0.778389 0.490234 0.868792 0.490234 0.949149C0.490234 1.02951 0.530413 1.11991 0.590681 1.18018L5.27148 5.86098C5.33175 5.92125 5.42215 5.96143 5.50251 5.96143C5.58287 5.96143 5.67327 5.92125 5.73354 5.86098L10.4143 1.18018C10.4746 1.11991 10.5148 1.02951 10.5148 0.949149Z" fill="#1E0E62"/>
</svg>
